<?xml version="1.0" encoding="UTF-8"?><svg id="Layer_1" xmlns="http://www.w3.org/2000/svg" viewBox="0 0 474 474"><defs><style>.cls-1{font-family:AgencyFB-Reg, 'Agency FB';font-size:80px;stroke:#000;stroke-miterlimit:10;stroke-width:4px;}.cls-1,.cls-2{fill:#fff;}</style></defs><g><path class="cls-2" d="M237,473.5c-63.17,0-122.56-24.6-167.23-69.27S.5,300.17,.5,237,25.1,114.44,69.77,69.77,173.83,.5,237,.5s122.56,24.6,167.23,69.27,69.27,104.06,69.27,167.23-24.6,122.56-69.27,167.23-104.06,69.27-167.23,69.27Z"/><path d="M237,1c31.86,0,62.77,6.24,91.86,18.55,28.1,11.89,53.34,28.9,75.02,50.58,21.67,21.67,38.69,46.91,50.58,75.02,12.31,29.09,18.55,60,18.55,91.86s-6.24,62.77-18.55,91.86c-11.89,28.1-28.9,53.34-50.58,75.02-21.67,21.67-46.91,38.69-75.02,50.58-29.09,12.31-60,18.55-91.86,18.55s-62.77-6.24-91.86-18.55c-28.1-11.89-53.34-28.9-75.02-50.58-21.67-21.67-38.69-46.91-50.58-75.02C7.24,299.77,1,268.86,1,237s6.24-62.77,18.55-91.86c11.89-28.1,28.9-53.34,50.58-75.02,21.67-21.67,46.91-38.69,75.02-50.58C174.23,7.24,205.14,1,237,1m0-1C106.11,0,0,106.11,0,237s106.11,237,237,237,237-106.11,237-237S367.89,0,237,0h0Z"/></g><g><path d="M237,461.5c-59.97,0-116.34-23.35-158.75-65.75C35.85,353.34,12.5,296.97,12.5,237S35.85,120.66,78.25,78.25,177.03,12.5,237,12.5s116.34,23.35,158.75,65.75c42.4,42.4,65.75,98.78,65.75,158.75s-23.35,116.34-65.75,158.75-98.78,65.75-158.75,65.75Z"/><path class="cls-2" d="M237,13c30.24,0,59.58,5.92,87.19,17.6,26.67,11.28,50.63,27.43,71.2,48.01,20.57,20.57,36.72,44.53,48.01,71.2,11.68,27.62,17.6,56.95,17.6,87.19s-5.92,59.58-17.6,87.19c-11.28,26.67-27.43,50.63-48.01,71.2-20.57,20.57-44.53,36.72-71.2,48.01-27.62,11.68-56.95,17.6-87.19,17.6s-59.58-5.92-87.19-17.6c-26.67-11.28-50.63-27.43-71.2-48.01-20.57-20.57-36.72-44.53-48.01-71.2-11.68-27.62-17.6-56.95-17.6-87.19s5.92-59.58,17.6-87.19c11.28-26.67,27.43-50.63,48.01-71.2,20.57-20.57,44.53-36.72,71.2-48.01,27.62-11.68,56.95-17.6,87.19-17.6m0-1C112.74,12,12,112.74,12,237s100.74,225,225,225,225-100.74,225-225S361.26,12,237,12h0Z"/></g><g><path d="M184.5,168.5V89.5h65.5c21.78,0,39.5,17.72,39.5,39.5s-17.72,39.5-39.5,39.5h-65.5Z"/><path class="cls-2" d="M250,90c21.5,0,39,17.5,39,39s-17.5,39-39,39h-65V90h65m0-1h-66v80h66c22.09,0,40-17.91,40-40h0c0-22.09-17.91-40-40-40h0Z"/></g><g><path d="M184.5,241.5v-79h65.5c21.78,0,39.5,17.72,39.5,39.5s-17.72,39.5-39.5,39.5h-65.5Z"/><path class="cls-2" d="M250,163c21.5,0,39,17.5,39,39s-17.5,39-39,39h-65v-78h65m0-1h-66v80h66c22.09,0,40-17.91,40-40h0c0-22.09-17.91-40-40-40h0Z"/></g><text class="cls-1" transform="translate(95.12 341.78) scale(1.64 1)"><tspan x="0" y="0">BAYI LI</tspan></text></svg>