<?xml version="1.0" standalone="no"?><!DOCTYPE svg PUBLIC "-//W3C//DTD SVG 1.1//EN" "http://www.w3.org/Graphics/SVG/1.1/DTD/svg11.dtd"><svg t="1732866712893" class="icon" viewBox="0 0 1024 1024" version="1.1" xmlns="http://www.w3.org/2000/svg" p-id="1510" xmlns:xlink="http://www.w3.org/1999/xlink" width="200" height="200"><path d="M170.666667 565.589333V512H85.333333v-85.333333h271.573334L477.866667 341.333333h148.992L580.266667 213.333333H469.333333V128h170.666667l46.592 128H853.333333v128h-120.149333l62.122667 170.752a192 192 0 1 1-84.693334 16.725333L657.877333 426.666667h-40.405333l-67.498667 250.453333-0.085333-0.042667 0.085333 0.213334-124.8 45.44A192 192 0 1 1 170.666667 565.589333z m85.333333-9.770666a192 192 0 0 1 139.989333 86.741333l83.498667-30.421333L529.194667 426.666667h-23.338667L384 512H256v43.818667zM234.666667 853.333333a106.666667 106.666667 0 1 0 0-213.333333 106.666667 106.666667 0 0 0 0 213.333333z m554.666666 0a106.666667 106.666667 0 1 0 0-213.333333 106.666667 106.666667 0 0 0 0 213.333333z" p-id="1511"></path></svg>