<?xml version="1.0" standalone="no"?><!DOCTYPE svg PUBLIC "-//W3C//DTD SVG 1.1//EN" "http://www.w3.org/Graphics/SVG/1.1/DTD/svg11.dtd"><svg t="1733128620528" class="icon" viewBox="0 0 1149 1024" version="1.1" xmlns="http://www.w3.org/2000/svg" p-id="5369" xmlns:xlink="http://www.w3.org/1999/xlink" width="224.4140625" height="200"><path d="M1062.84 117.59H695.97c-14.19 0-25.68 11.5-25.68 25.68s11.49 25.68 25.68 25.68h224.19v180.59c0 13.19-10.73 23.91-23.9 23.91h-140.8v0.03h-25.78c-47.63 0-86.45 39.06-87.15 87.33L619 707.44l-102.17-0.73 62.48-252.26c0.16-0.63 0.16-1.25 0.27-1.88h22.93c14.18 0 25.68-11.5 25.68-25.68s-11.5-25.68-25.68-25.68H481.65c-14.18 0-25.68 11.5-25.68 25.68s11.5 25.68 25.68 25.68h45.21L469.9 682.51c-66.38-55.48-183.94-188.33-194.08-218.98-0.55-5.91-3.3-11.07-7.17-15.14l22.73-93.27 0.62-3.76c0.8-8.81 8.61-15.43 17.93-14.48l88.3 6.37c14.32 1.17 26.44-9.61 27.46-23.76 1.02-14.16-9.62-26.45-23.77-27.47l-87.81-6.34c-36.34-3.29-68.63 22.97-73.03 58.9l-55.09 226.07c-5.76-0.6-11.6-0.92-17.52-0.92-92.89 0-168.47 75.57-168.47 168.47s75.57 168.47 168.47 168.47S336.93 831.1 336.93 738.2c0-69.01-41.75-128.39-101.28-154.4l15.43-63.33c40.78 58.39 116.83 136.9 140.73 160.03 81.24 78.6 104.05 77.73 114.01 77.48l191.72 1.39c10.46 82.92 81.28 147.3 166.99 147.3 84.91 0 155.15-63.21 166.63-145.01l31.67 0.24c48.06 0 87.16-39.09 87.16-87.14V204.75c0.01-48.06-39.09-87.16-87.15-87.16zM285.57 738.2c0 64.57-52.53 117.1-117.1 117.1s-117.1-52.53-117.1-117.1S103.9 621.1 168.47 621.1c1.74 0 3.44 0.19 5.17 0.26L146.6 732.27c-3.35 13.79 5.09 27.67 18.88 31.03 2.04 0.5 4.09 0.74 6.09 0.74 11.57 0 22.08-7.86 24.94-19.6l26.72-109.67c37.04 19.69 62.34 58.64 62.34 103.43z m578.97 117.11c-64.57 0-117.1-52.53-117.1-117.1s52.53-117.1 117.1-117.1c64.56 0 117.1 52.53 117.1 117.1s-52.54 117.1-117.1 117.1z m234.1-180.56c0 19.73-16.06 35.78-35.6 35.78l-32.55-0.24C1017.12 630.66 947.9 569.73 864.54 569.73c-82.58 0-151.32 59.76-165.61 138.28l-28.37-0.2 23.22-243.24 0.12-2.44c0-20.57 16.06-37.28 35.8-37.28h170.83v-0.46c39.49-2.26 71.01-34.8 71.01-74.84v-180.6h91.31c19.74 0 35.8 16.05 35.8 35.8v470z" fill="#666666" p-id="5370"></path></svg>